<?xml version="1.0" standalone="no"?>
<!DOCTYPE svg PUBLIC "-//W3C//DTD SVG 20010904//EN"
 "http://www.w3.org/TR/2001/REC-SVG-20010904/DTD/svg10.dtd">
<svg version="1.0" xmlns="http://www.w3.org/2000/svg"
 width="300.000000pt" height="300.000000pt" viewBox="0 0 300.000000 300.000000"
 preserveAspectRatio="xMidYMid meet">
<metadata>
Created by potrace 1.14, written by Peter Selinger 2001-2017
</metadata>
<g transform="translate(0.000000,300.000000) scale(0.100000,-0.100000)"
fill="#000000" stroke="none">
<path d="M459 2079 c-10 -6 -14 -49 -15 -181 -1 -95 -2 -176 -3 -180 0 -5 -39
-8 -85 -8 -52 0 -88 -4 -92 -11 -5 -9 -8 -267 -5 -386 1 -21 6 -22 93 -25 l93
-3 0 -178 c0 -136 4 -180 14 -186 10 -7 154 -8 209 -2 9 1 12 54 12 231 l0
230 38 1 c45 0 1584 0 1595 0 4 -1 7 -104 7 -231 0 -176 3 -230 13 -232 56 -7
209 -3 215 6 3 6 7 88 8 181 1 94 2 173 3 178 0 4 42 7 91 7 l90 0 1 28 c5
135 0 375 -7 382 -5 5 -47 10 -94 12 l-85 3 0 175 c0 96 -4 180 -8 186 -5 9
-177 13 -219 5 -5 0 -8 -104 -8 -231 l0 -230 -37 -1 c-49 0 -1481 0 -1550 0
l-53 1 0 230 c0 177 -3 230 -12 232 -49 6 -199 4 -209 -3z m172 -47 c0 -10 1
-899 0 -994 l-1 -78 -69 0 -69 0 0 540 -1 539 69 0 c39 0 70 -3 71 -7z m1878
-532 l0 -540 -70 0 c-65 0 -69 1 -70 23 0 29 0 1017 0 1040 1 14 11 17 70 17
l70 0 0 -540z m-2069 161 c7 -2 6 -304 -2 -316 -5 -8 -71 -11 -123 -6 -16 2
-13 310 2 319 10 6 99 8 123 3z m2255 -155 c0 -132 -2 -159 -15 -165 -12 -5
-75 -7 -115 -2 -7 1 -10 59 -9 164 1 89 2 162 3 162 0 0 31 0 68 -1 l68 0 0
-158z m-375 -6 l0 -70 -820 0 -820 0 0 70 0 70 820 0 820 0 0 -70z"/>
</g>
</svg>
