<?xml version="1.0" standalone="no"?>
<!DOCTYPE svg PUBLIC "-//W3C//DTD SVG 20010904//EN"
 "http://www.w3.org/TR/2001/REC-SVG-20010904/DTD/svg10.dtd">
<svg version="1.0" xmlns="http://www.w3.org/2000/svg"
 width="512.000000pt" height="512.000000pt" viewBox="0 0 512.000000 512.000000"
 preserveAspectRatio="xMidYMid meet">
<metadata>
Created by potrace 1.14, written by Peter Selinger 2001-2017
</metadata>
<g transform="translate(0.000000,512.000000) scale(0.100000,-0.100000)"
fill="#000000" stroke="none">
<path d="M776 3544 c-14 -13 -16 -56 -16 -320 l0 -304 -148 0 c-102 0 -152 -4
-160 -12 -17 -17 -17 -679 0 -696 8 -8 58 -12 160 -12 l148 0 0 -304 c0 -264
2 -307 16 -320 13 -13 44 -16 180 -16 95 0 174 4 185 10 18 10 19 25 19 400
l0 390 1400 0 1400 0 0 -390 c0 -375 1 -390 19 -400 11 -6 90 -10 185 -10 136
0 167 3 180 16 14 13 16 56 16 320 l0 304 148 0 c102 0 152 4 160 12 17 17 17
679 0 696 -8 8 -58 12 -160 12 l-148 0 0 304 c0 264 -2 307 -16 320 -13 13
-44 16 -188 16 -120 0 -176 -4 -184 -12 -9 -9 -12 -112 -12 -400 l0 -388
-1400 0 -1400 0 0 390 c0 375 -1 390 -19 400 -11 6 -90 10 -185 10 -136 0
-167 -3 -180 -16z m304 -984 l0 -920 -120 0 -120 0 0 920 0 920 120 0 120 0 0
-920z m3200 0 l0 -920 -120 0 -120 0 0 920 0 920 120 0 120 0 0 -920z m-3525
0 l0 -275 -115 0 -115 0 -3 265 c-1 146 0 271 3 278 3 9 32 12 117 10 l113 -3
0 -275z m3840 0 l0 -275 -115 0 -115 0 -3 265 c-1 146 0 271 3 278 3 9 32 12
117 10 l113 -3 0 -275z m-635 0 l0 -120 -1400 0 -1400 0 0 120 0 120 1400 0
1400 0 0 -120z"/>
</g>
</svg>
